<svg width="30" height="30" viewBox="0 0 30 30" fill="none" xmlns="http://www.w3.org/2000/svg">
<path d="M3.75 17.5C3.75 15.4289 5.42893 13.75 7.5 13.75H22.5C24.5711 13.75 26.25 15.4289 26.25 17.5V22.5C26.25 23.1904 25.6904 23.75 25 23.75H22.5C21.8096 23.75 21.25 23.1904 21.25 22.5V21.25H8.75V22.5C8.75 23.1904 8.19036 23.75 7.5 23.75H5C4.30964 23.75 3.75 23.1904 3.75 22.5V17.5Z" stroke="white" stroke-width="1.875" stroke-linejoin="round"/>
<path d="M6.25 13.75L8.18019 7.95943C8.52048 6.93857 9.47582 6.25 10.5519 6.25H19.4481C20.5242 6.25 21.4795 6.93858 21.8198 7.95943L23.75 13.75" stroke="white" stroke-width="1.875" stroke-linecap="round" stroke-linejoin="round"/>
<path d="M23.75 13.75L26.25 12.5" stroke="white" stroke-width="1.875" stroke-linecap="round" stroke-linejoin="round"/>
<path d="M6.25 13.75L3.75 12.5" stroke="white" stroke-width="1.875" stroke-linecap="round" stroke-linejoin="round"/>
<path d="M7.5 17.5H10" stroke="white" stroke-width="1.875" stroke-linecap="round" stroke-linejoin="round"/>
<path d="M20 17.5H22.5" stroke="white" stroke-width="1.875" stroke-linecap="round" stroke-linejoin="round"/>
</svg>
