<svg width="26" height="20" viewBox="0 0 26 20" fill="none" xmlns="http://www.w3.org/2000/svg">
<path d="M2.28516 0H23.7148C24.9733 0 26 1.02558 26 2.28516V17.5195C26 18.7748 24.9779 19.8047 23.7148 19.8047H2.28516C1.02984 19.8047 0 18.7826 0 17.5195V2.28516C0 1.02984 1.02213 0 2.28516 0ZM2.60071 1.52344L12.9516 11.8743L23.3919 1.52344H2.60071ZM24.4766 17.2041V2.59335L17.1397 9.86725L24.4766 17.2041ZM23.3993 18.2812L16.0579 10.9398L13.4855 13.4901C13.1877 13.7854 12.7071 13.7844 12.4106 13.4878L9.90234 10.9796L2.60066 18.2812H23.3993ZM1.52344 17.204L8.82512 9.90234L1.52344 2.60061V17.204Z" fill="white"/>
</svg>
