<svg width="12" height="7" viewBox="0 0 12 7" fill="none" xmlns="http://www.w3.org/2000/svg">
<path d="M5.97969 6.64535C5.81238 6.64579 5.65025 6.56855 5.52142 6.42704L1.22518 1.68121C1.07895 1.5201 0.986994 1.28859 0.969537 1.03761C0.95208 0.786621 1.01055 0.536724 1.13209 0.342888C1.25363 0.149053 1.42828 0.0271568 1.61762 0.00401641C1.80696 -0.019124 1.99548 0.0583863 2.14171 0.219496L5.97969 4.47176L9.81767 0.371364C9.89091 0.29252 9.97518 0.233642 10.0656 0.198113C10.1561 0.162584 10.251 0.151105 10.3448 0.164336C10.4386 0.177566 10.5295 0.215245 10.6123 0.275208C10.6951 0.33517 10.7682 0.416234 10.8273 0.513738C10.8929 0.611333 10.9425 0.725828 10.9732 0.850048C11.0038 0.974269 11.0148 1.10554 11.0054 1.23564C10.9959 1.36573 10.9664 1.49185 10.9185 1.60609C10.8706 1.72033 10.8054 1.82022 10.727 1.89952L6.43079 6.48399C6.29827 6.60313 6.13944 6.65994 5.97969 6.64535Z" fill="#45B871"/>
</svg>
