<svg width="81" height="19" viewBox="0 0 81 19" fill="none" xmlns="http://www.w3.org/2000/svg">
<path d="M14.7884 1.39911V12.3905C14.7884 13.6453 14.5057 14.7452 13.9402 15.6902C13.3825 16.6352 12.5731 17.3594 11.5119 17.8629C10.4507 18.3664 9.1959 18.6181 7.74743 18.6181C5.5631 18.6181 3.86676 18.0604 2.65841 16.945C1.45006 15.8219 0.845883 14.2882 0.845883 12.344V1.39911H4.43608V11.7979C4.43608 13.107 4.69944 14.0674 5.22616 14.6794C5.75287 15.2913 6.62428 15.5972 7.84038 15.5972C9.01775 15.5972 9.86979 15.2913 10.3965 14.6794C10.931 14.0597 11.1982 13.0915 11.1982 11.7747V1.39911H14.7884Z" fill="#45B871"/>
<path d="M17.5188 13.4594V10.5547H23.7581V13.4594H17.5188ZM33.8315 4.15276C32.476 4.15276 31.4265 4.66399 30.6829 5.68644C29.9393 6.70114 29.5675 8.11863 29.5675 9.9389C29.5675 13.7266 30.9888 15.6205 33.8315 15.6205C35.0244 15.6205 36.469 15.3223 38.1653 14.7258V17.7467C36.7711 18.3276 35.2142 18.6181 33.4946 18.6181C31.0237 18.6181 29.1337 17.8706 27.8246 16.3757C26.5156 14.873 25.8611 12.7197 25.8611 9.91567C25.8611 8.14961 26.1825 6.60432 26.8254 5.27978C27.4683 3.94749 28.3901 2.92892 29.5907 2.22405C30.799 1.51143 32.2127 1.15512 33.8315 1.15512C35.4814 1.15512 37.139 1.55403 38.8044 2.35185L37.6425 5.27978C37.0073 4.97769 36.3683 4.71433 35.7254 4.4897C35.0825 4.26507 34.4512 4.15276 33.8315 4.15276ZM53.0025 11.9373C53.0025 14.0365 52.4642 15.6747 51.3875 16.8521C50.3108 18.0294 48.812 18.6181 46.891 18.6181C45.6904 18.6181 44.6292 18.347 43.7075 17.8048C42.7857 17.2626 42.077 16.4841 41.5813 15.4694C41.0855 14.4547 40.8377 13.2774 40.8377 11.9373C40.8377 9.8537 41.3721 8.22707 42.441 7.05745C43.51 5.88783 45.0165 5.30302 46.9607 5.30302C48.8197 5.30302 50.2915 5.90332 51.3759 7.10392C52.4603 8.29678 53.0025 9.90792 53.0025 11.9373ZM43.6494 11.9373C43.6494 14.904 44.7454 16.3873 46.9375 16.3873C49.1063 16.3873 50.1908 14.904 50.1908 11.9373C50.1908 9.00166 49.0986 7.53382 46.9143 7.53382C45.7679 7.53382 44.9352 7.91337 44.4162 8.67246C43.905 9.43155 43.6494 10.5198 43.6494 11.9373ZM60.485 18.6181C58.8816 18.6181 57.6306 18.0372 56.7321 16.8753C55.8336 15.7134 55.3843 14.0829 55.3843 11.9838C55.3843 9.87694 55.8375 8.23869 56.7437 7.06907C57.6578 5.8917 58.9203 5.30302 60.5315 5.30302C62.2201 5.30302 63.5059 5.92656 64.3889 7.17364H64.5283C64.3966 6.25188 64.3308 5.52377 64.3308 4.98931V0.30695H67.0728V18.3857H64.935L64.4586 16.701H64.3308C63.4555 17.9791 62.1736 18.6181 60.485 18.6181ZM61.217 16.4106C62.3401 16.4106 63.1573 16.0968 63.6685 15.4694C64.1798 14.8343 64.4431 13.808 64.4586 12.3905V12.007C64.4586 10.3882 64.1952 9.2379 63.6685 8.55627C63.1418 7.87464 62.3169 7.53382 61.1937 7.53382C60.2332 7.53382 59.4935 7.92498 58.9745 8.70731C58.4556 9.4819 58.1961 10.5896 58.1961 12.0303C58.1961 13.4555 58.4478 14.5438 58.9513 15.2952C59.4548 16.0388 60.21 16.4106 61.217 16.4106ZM79.0169 18.3857L78.4708 16.5965H78.3779C77.7582 17.3788 77.1347 17.9132 76.5073 18.1998C75.8798 18.4787 75.0743 18.6181 74.0906 18.6181C72.828 18.6181 71.8404 18.2773 71.1278 17.5957C70.4229 16.914 70.0705 15.9497 70.0705 14.7026C70.0705 13.3781 70.5623 12.3788 71.546 11.705C72.5298 11.0311 74.0286 10.6631 76.0425 10.6012L78.2617 10.5315V9.84595C78.2617 9.02489 78.068 8.41297 77.6807 8.01019C77.3012 7.59966 76.7086 7.39439 75.9031 7.39439C75.2447 7.39439 74.6134 7.49122 74.0092 7.68486C73.405 7.87851 72.8241 8.10701 72.2664 8.37037L71.3834 6.41842C72.0805 6.05436 72.8435 5.77939 73.6723 5.59349C74.5011 5.39984 75.2834 5.30302 76.0193 5.30302C77.6536 5.30302 78.8852 5.65933 79.714 6.37194C80.5506 7.08456 80.9689 8.20383 80.9689 9.72976V18.3857H79.0169ZM74.9503 16.5267C75.9418 16.5267 76.7358 16.2518 77.3322 15.7018C77.9364 15.1441 78.2385 14.3657 78.2385 13.3664V12.251L76.5886 12.3207C75.3028 12.3672 74.3655 12.5841 73.7768 12.9714C73.1959 13.3509 72.9054 13.9358 72.9054 14.7258C72.9054 15.299 73.0758 15.7444 73.4167 16.062C73.7575 16.3718 74.2687 16.5267 74.9503 16.5267Z" fill="#242323"/>
</svg>
