<svg width="80" height="80" viewBox="0 0 80 80" fill="none" xmlns="http://www.w3.org/2000/svg">
<circle opacity="0.2" cx="40" cy="40" r="40" fill="#0FC4A3"/>
<path fill-rule="evenodd" clip-rule="evenodd" d="M35.6099 44.6351L42.9239 56.5011C43.2439 57.0211 43.7439 57.0151 43.9459 56.9871C44.1479 56.9591 44.6339 56.8351 44.8099 56.2451L53.9559 25.3551C54.1159 24.8091 53.8219 24.4371 53.6899 24.3051C53.5619 24.1731 53.1959 23.8911 52.6659 24.0411L21.7539 33.0931C21.1679 33.2651 21.0399 33.7571 21.0119 33.9591C20.9839 34.1651 20.9759 34.6751 21.4939 35.0011L33.4959 42.5071L44.0999 31.7911C44.6819 31.2031 45.6319 31.1971 46.2219 31.7791C46.8119 32.3611 46.8159 33.3131 46.2339 33.9011L35.6099 44.6351ZM43.7899 59.9991C42.3979 59.9991 41.1219 59.2911 40.3699 58.0751L32.6159 45.4931L19.9039 37.5431C18.5339 36.6851 17.8179 35.1571 18.0399 33.5511C18.2599 31.9451 19.3619 30.6691 20.9099 30.2151L51.8219 21.1631C53.2439 20.7471 54.7679 21.1411 55.8159 22.1851C56.8639 23.2391 57.2539 24.7791 56.8299 26.2071L47.6839 57.0951C47.2259 58.6491 45.9459 59.7471 44.3439 59.9611C44.1559 59.9851 43.9739 59.9991 43.7899 59.9991Z" fill="#0FC4A3"/>
</svg>
