<svg width="80" height="80" viewBox="0 0 80 80" fill="none" xmlns="http://www.w3.org/2000/svg">
<circle opacity="0.2" cx="40" cy="40" r="40" fill="#15C012"/>
<path fill-rule="evenodd" clip-rule="evenodd" d="M44.794 20.6842C45.622 20.6842 46.294 21.3562 46.294 22.1842C46.294 23.0122 45.622 23.6842 44.794 23.6842H30.258C25.242 23.6842 22 27.1322 22 32.4722V48.6362C22 54.0462 25.164 57.4062 30.258 57.4062H47.466C52.482 57.4062 55.724 53.9642 55.724 48.6362V34.5582C55.724 33.7302 56.396 33.0582 57.224 33.0582C58.052 33.0582 58.724 33.7302 58.724 34.5582V48.6362C58.724 55.6762 54.2 60.4062 47.466 60.4062H30.258C23.524 60.4062 19 55.6762 19 48.6362V32.4722C19 25.4222 23.524 20.6842 30.258 20.6842H44.794ZM49.0248 34.3438C49.6808 34.8518 49.8008 35.7938 49.2928 36.4478L43.4328 44.0078C43.1888 44.3238 42.8288 44.5298 42.4328 44.5778C42.0328 44.6318 41.6368 44.5158 41.3208 44.2698L35.6848 39.8418L30.6228 46.4198C30.3268 46.8038 29.8828 47.0058 29.4328 47.0058C29.1128 47.0058 28.7908 46.9038 28.5188 46.6958C27.8628 46.1898 27.7388 45.2478 28.2448 44.5918L34.2308 36.8118C34.4748 36.4938 34.8368 36.2878 35.2328 36.2378C35.6368 36.1858 36.0328 36.2978 36.3468 36.5478L41.9868 40.9778L46.9208 34.6118C47.4288 33.9538 48.3688 33.8318 49.0248 34.3438ZM54.9348 19C57.8828 19 60.2788 21.396 60.2788 24.344C60.2788 27.292 57.8828 29.69 54.9348 29.69C51.9888 29.69 49.5908 27.292 49.5908 24.344C49.5908 21.396 51.9888 19 54.9348 19ZM54.9348 22C53.6428 22 52.5908 23.05 52.5908 24.344C52.5908 25.636 53.6428 26.69 54.9348 26.69C56.2268 26.69 57.2788 25.636 57.2788 24.344C57.2788 23.05 56.2268 22 54.9348 22Z" fill="#15C012"/>
</svg>
