<svg width="30" height="30" viewBox="0 0 30 30" fill="none" xmlns="http://www.w3.org/2000/svg">
<g opacity="0.7">
<path d="M21.51 0C26.595 0 30 3.57 30 8.88V21.1365C30 26.43 26.595 30 21.51 30H8.505C3.42 30 0 26.43 0 21.1365V8.88C0 3.57 3.42 0 8.505 0H21.51ZM21.27 10.5C20.76 9.99 19.92 9.99 19.41 10.5L13.215 16.695L10.59 14.07C10.08 13.56 9.24 13.56 8.73 14.07C8.22 14.58 8.22 15.405 8.73 15.93L12.3 19.485C12.555 19.74 12.885 19.86 13.215 19.86C13.56 19.86 13.89 19.74 14.145 19.485L21.27 12.36C21.78 11.85 21.78 11.025 21.27 10.5Z" fill="#545EE1"/>
</g>
</svg>
