<svg width="80" height="80" viewBox="0 0 80 80" fill="none" xmlns="http://www.w3.org/2000/svg">
<circle opacity="0.2" cx="40" cy="40" r="40" fill="#8812C0"/>
<path fill-rule="evenodd" clip-rule="evenodd" d="M48.284 21C54.898 21 60.278 26.38 60.278 32.996V47.35C60.278 53.964 54.898 59.346 48.284 59.346H30.996C24.382 59.346 19 53.964 19 47.35V32.996C19 26.38 24.382 21 30.996 21H48.284ZM48.284 24H30.996C26.036 24 22 28.036 22 32.996V47.35C22 52.31 26.036 56.346 30.996 56.346H48.284C53.244 56.346 57.278 52.31 57.278 47.35V46.79L50.6822 46.7912C46.8882 46.7912 43.8002 43.7052 43.7982 39.9132C43.7982 36.1172 46.8862 33.0292 50.6822 33.0272L57.278 33.026V32.996C57.278 28.036 53.244 24 48.284 24ZM57.278 36.026L50.6822 36.0272C48.5402 36.0292 46.7982 37.7712 46.7982 39.9112C46.7982 42.0492 48.5422 43.7912 50.6822 43.7912L57.278 43.79V36.026ZM51.5974 38.2872C52.4254 38.2872 53.0974 38.9592 53.0974 39.7872C53.0974 40.6152 52.4254 41.2872 51.5974 41.2872H50.9734C50.1454 41.2872 49.4734 40.6152 49.4734 39.7872C49.4734 38.9592 50.1454 38.2872 50.9734 38.2872H51.5974ZM40.37 30.0762C41.198 30.0762 41.87 30.7482 41.87 31.5762C41.87 32.4042 41.198 33.0762 40.37 33.0762H29.572C28.744 33.0762 28.072 32.4042 28.072 31.5762C28.072 30.7482 28.744 30.0762 29.572 30.0762H40.37Z" fill="#8812C0"/>
</svg>
