<svg width="25" height="25" viewBox="0 0 25 25" fill="none" xmlns="http://www.w3.org/2000/svg">
<g id="Iconly/Bold/Play">
<g id="Play">
<path id="Vector" d="M12.5 0C19.3895 0 25 5.60781 25 12.5072C25 19.3922 19.3895 25 12.5 25C5.61052 25 0 19.3922 0 12.5072C0 5.60781 5.61052 0 12.5 0ZM11.0763 7.53738C10.8108 7.53738 10.5574 7.59768 10.3161 7.71828C10.0145 7.88712 9.77317 8.15244 9.64044 8.46599C9.55598 8.68307 9.42326 9.3343 9.42326 9.34636C9.29054 10.0579 9.21815 11.2156 9.21815 12.494C9.21815 13.7132 9.29054 14.8215 9.39913 15.5451C9.4112 15.5572 9.54392 16.3652 9.68871 16.6425C9.95415 17.1491 10.473 17.4626 11.028 17.4626H11.0763C11.4382 17.4506 12.1984 17.137 12.1984 17.1249C13.4773 16.5943 15.999 14.9421 17.0125 13.8447L17.0849 13.7723C17.2177 13.6397 17.3866 13.4346 17.4228 13.3864C17.6158 13.1331 17.7124 12.8196 17.7124 12.5072C17.7124 12.1563 17.6038 11.8307 17.3986 11.5654C17.3504 11.5171 17.1694 11.3121 17.0005 11.1433C16.0111 10.082 13.4291 8.34539 12.0777 7.81476C11.8726 7.73155 11.3538 7.54945 11.0763 7.53738Z" fill="#0F1457"/>
</g>
</g>
</svg>
