<svg width="166" height="137" viewBox="0 0 166 137" fill="none" xmlns="http://www.w3.org/2000/svg">
<path opacity="0.2" d="M70.1118 0C71.8302 5.13108 72.6894 9.40699 72.6894 12.8277C72.6894 15.9064 72.1739 20.0113 71.1429 25.1423C48.1159 25.1423 36.6025 36.9438 36.6025 60.5468C36.6025 69.0986 41.0704 73.8876 50.0062 74.9139C63.0663 75.9401 69.5963 84.3208 69.5963 100.056C69.5963 112.029 66.6749 121.265 60.8323 127.764C55.3333 133.921 45.1946 137 30.4161 137C10.1387 137 0 123.317 0 95.9513C0 68.5855 5.49897 45.8377 16.4969 27.7079C27.4948 9.23596 45.3665 0 70.1118 0ZM163.422 0C165.141 5.13108 166 9.40699 166 12.8277C166 15.9064 165.484 20.0113 164.453 25.1423C141.426 25.1423 129.913 36.9438 129.913 60.5468C129.913 69.0986 134.381 73.8876 143.317 74.9139C156.377 75.9401 162.907 84.3208 162.907 100.056C162.907 112.029 159.986 121.265 154.143 127.764C148.644 133.921 138.505 137 123.727 137C103.449 137 93.3106 123.317 93.3106 95.9513C93.3106 68.5855 98.8095 45.8377 109.807 27.7079C120.805 9.23596 138.677 0 163.422 0Z" fill="#545EE1"/>
</svg>
